<svg width="64" height="64" viewBox="0 0 64 64" fill="none" xmlns="http://www.w3.org/2000/svg">
  <rect width="64" height="64" rx="12" fill="#1a4d2e"/>
  <path d="M32 12C25 12 20 17 20 24C20 28 22 31 25 33C25 36 24 40 24 44C24 48 27 52 32 52C37 52 40 48 40 44C40 40 39 36 39 33C42 31 44 28 44 24C44 17 39 12 32 12Z" fill="#90EE90"/>
  <ellipse cx="28" cy="25" rx="2" ry="3" fill="#1a4d2e"/>
  <ellipse cx="36" cy="25" rx="2" ry="3" fill="#1a4d2e"/>
  <path d="M28 30C28 30 30 32 32 32C34 32 36 30 36 30" stroke="#1a4d2e" stroke-width="2" stroke-linecap="round"/>
</svg>
